<svg xmlns="http://www.w3.org/2000/svg" width="2000" height="2000">
<rect width="100%" height="100%" fill="#0a0a2a"/>
<style>text{font-family:monospace;fill:#ccc;font-size:13px} .title{font-size:20px;fill:#fff;text-anchor:middle}</style>
<text class="title" x="250.0" y="15">Col</text>
<line x1="426.9" y1="70.8" x2="73.1" y2="409.2" stroke="#446" stroke-width="1.5"/>
<circle cx="426.9" cy="70.8" r="5" fill="#ffd700"/>
<text x="434.9" y="74.8">Phact</text>
<circle cx="73.1" cy="409.2" r="3" fill="#aaa"/>
<text x="81.1" y="413.2">bCol</text>
<text class="title" x="750.0" y="15">Cru</text>
<line x1="802.5" y1="409.2" x2="752.9" y2="70.8" stroke="#446" stroke-width="1.5"/>
<line x1="573.1" y1="216.9" x2="926.9" y2="163.2" stroke="#446" stroke-width="1.5"/>
<circle cx="802.5" cy="409.2" r="3" fill="#aaa"/>
<text x="810.5" y="413.2">aCru</text>
<circle cx="573.1" cy="216.9" r="3" fill="#aaa"/>
<text x="581.1" y="220.9">bCru</text>
<circle cx="752.9" cy="70.8" r="3" fill="#aaa"/>
<text x="760.9" y="74.8">gCru</text>
<circle cx="926.9" cy="163.2" r="3" fill="#aaa"/>
<text x="934.9" y="167.2">dCru</text>
<text class="title" x="1250.0" y="15">Crv</text>
<line x1="1139.0" y1="70.8" x2="1344.2" y2="121.6" stroke="#446" stroke-width="1.5"/>
<line x1="1344.2" y1="121.6" x2="1426.9" y2="371.5" stroke="#446" stroke-width="1.5"/>
<line x1="1426.9" y1="371.5" x2="1073.1" y2="409.2" stroke="#446" stroke-width="1.5"/>
<line x1="1073.1" y1="409.2" x2="1139.0" y2="70.8" stroke="#446" stroke-width="1.5"/>
<circle cx="1426.9" cy="371.5" r="3" fill="#aaa"/>
<text x="1434.9" y="375.5">eCrv</text>
<circle cx="1073.1" cy="409.2" r="3" fill="#aaa"/>
<text x="1081.1" y="413.2">bCrv</text>
<circle cx="1344.2" cy="121.6" r="3" fill="#aaa"/>
<text x="1352.2" y="125.6">gCrv</text>
<circle cx="1139.0" cy="70.8" r="3" fill="#aaa"/>
<text x="1147.0" y="74.8">dCrv</text>
<text class="title" x="1750.0" y="15">Cyg</text>
<line x1="1682.1" y1="70.8" x2="1748.6" y2="168.8" stroke="#446" stroke-width="1.5"/>
<line x1="1748.6" y1="168.8" x2="1665.6" y2="291.6" stroke="#446" stroke-width="1.5"/>
<line x1="1748.6" y1="168.8" x2="1926.9" y2="409.2" stroke="#446" stroke-width="1.5"/>
<line x1="1748.6" y1="168.8" x2="1877.6" y2="73.7" stroke="#446" stroke-width="1.5"/>
<line x1="1877.6" y1="73.7" x2="1682.1" y2="70.8" stroke="#446" stroke-width="1.5"/>
<line x1="1682.1" y1="70.8" x2="1573.1" y2="364.9" stroke="#446" stroke-width="1.5"/>
<line x1="1573.1" y1="364.9" x2="1665.6" y2="291.6" stroke="#446" stroke-width="1.5"/>
<circle cx="1682.1" cy="70.8" r="5" fill="#ffd700"/>
<text x="1690.1" y="74.8">Deneb</text>
<circle cx="1926.9" cy="409.2" r="5" fill="#ffd700"/>
<text x="1934.9" y="413.2">Albireo</text>
<circle cx="1748.6" cy="168.8" r="3" fill="#aaa"/>
<text x="1756.6" y="172.8">gCyg</text>
<circle cx="1877.6" cy="73.7" r="3" fill="#aaa"/>
<text x="1885.6" y="77.7">dCyg</text>
<circle cx="1665.6" cy="291.6" r="3" fill="#aaa"/>
<text x="1673.6" y="295.6">eCyg</text>
<circle cx="1573.1" cy="364.9" r="3" fill="#aaa"/>
<text x="1581.1" y="368.9">zCyg</text>
<text class="title" x="250.0" y="515">Del</text>
<line x1="426.9" y1="909.2" x2="312.8" y2="678.5" stroke="#446" stroke-width="1.5"/>
<line x1="312.8" y1="678.5" x2="257.9" y2="586.0" stroke="#446" stroke-width="1.5"/>
<line x1="257.9" y1="586.0" x2="73.1" y2="570.8" stroke="#446" stroke-width="1.5"/>
<line x1="73.1" y1="570.8" x2="312.8" y2="678.5" stroke="#446" stroke-width="1.5"/>
<circle cx="257.9" cy="586.0" r="3" fill="#aaa"/>
<text x="265.9" y="590.0">aDel</text>
<circle cx="312.8" cy="678.5" r="3" fill="#aaa"/>
<text x="320.8" y="682.5">bDel</text>
<circle cx="73.1" cy="570.8" r="3" fill="#aaa"/>
<text x="81.1" y="574.8">gDel</text>
<circle cx="426.9" cy="909.2" r="3" fill="#aaa"/>
<text x="434.9" y="913.2">eDel</text>
<text class="title" x="750.0" y="515">Dor</text>
<line x1="926.9" y1="570.8" x2="573.1" y2="909.2" stroke="#446" stroke-width="1.5"/>
<circle cx="926.9" cy="570.8" r="3" fill="#aaa"/>
<text x="934.9" y="574.8">aDor</text>
<circle cx="573.1" cy="909.2" r="3" fill="#aaa"/>
<text x="581.1" y="913.2">bDor</text>
<text class="title" x="1250.0" y="515">Dra</text>
<line x1="1426.9" y1="625.0" x2="1382.7" y2="617.5" stroke="#446" stroke-width="1.5"/>
<line x1="1382.7" y1="617.5" x2="1318.0" y2="703.9" stroke="#446" stroke-width="1.5"/>
<line x1="1318.0" y1="703.9" x2="1260.6" y2="790.2" stroke="#446" stroke-width="1.5"/>
<line x1="1260.6" y1="790.2" x2="1234.3" y2="796.6" stroke="#446" stroke-width="1.5"/>
<line x1="1234.3" y1="796.6" x2="1218.5" y2="749.6" stroke="#446" stroke-width="1.5"/>
<line x1="1218.5" y1="749.6" x2="1186.6" y2="682.6" stroke="#446" stroke-width="1.5"/>
<line x1="1186.6" y1="682.6" x2="1135.1" y2="570.8" stroke="#446" stroke-width="1.5"/>
<line x1="1135.1" y1="570.8" x2="1098.4" y2="651.5" stroke="#446" stroke-width="1.5"/>
<line x1="1098.4" y1="651.5" x2="1073.1" y2="609.8" stroke="#446" stroke-width="1.5"/>
<line x1="1098.4" y1="651.5" x2="1154.7" y2="823.4" stroke="#446" stroke-width="1.5"/>
<line x1="1154.7" y1="823.4" x2="1169.9" y2="850.3" stroke="#446" stroke-width="1.5"/>
<line x1="1169.9" y1="850.3" x2="1171.2" y2="896.2" stroke="#446" stroke-width="1.5"/>
<line x1="1171.2" y1="896.2" x2="1152.5" y2="909.2" stroke="#446" stroke-width="1.5"/>
<line x1="1152.5" y1="909.2" x2="1154.7" y2="823.4" stroke="#446" stroke-width="1.5"/>
<circle cx="1260.6" cy="790.2" r="3" fill="#aaa"/>
<text x="1268.6" y="794.2">iDra</text>
<circle cx="1382.7" cy="617.5" r="3" fill="#aaa"/>
<text x="1390.7" y="621.5">kDra</text>
<circle cx="1426.9" cy="625.0" r="3" fill="#aaa"/>
<text x="1434.9" y="629.0">lDra</text>
<circle cx="1169.9" cy="850.3" r="3" fill="#aaa"/>
<text x="1177.9" y="854.3">nuDra</text>
<circle cx="1154.7" cy="823.4" r="3" fill="#aaa"/>
<text x="1162.7" y="827.4">zDra</text>
<circle cx="1135.1" cy="570.8" r="3" fill="#aaa"/>
<text x="1143.1" y="574.8">xDra</text>
<circle cx="1318.0" cy="703.9" r="5" fill="#ffd700"/>
<text x="1326.0" y="707.9">Thuban</text>
<circle cx="1171.2" cy="896.2" r="3" fill="#aaa"/>
<text x="1179.2" y="900.2">bDra</text>
<circle cx="1152.5" cy="909.2" r="5" fill="#ffd700"/>
<text x="1160.5" y="913.2">Etamin</text>
<circle cx="1098.4" cy="651.5" r="3" fill="#aaa"/>
<text x="1106.4" y="655.5">dDra</text>
<circle cx="1073.1" cy="609.8" r="3" fill="#aaa"/>
<text x="1081.1" y="613.8">eDra</text>
<circle cx="1186.6" cy="682.6" r="3" fill="#aaa"/>
<text x="1194.6" y="686.6">zDra</text>
<circle cx="1218.5" cy="749.6" r="3" fill="#aaa"/>
<text x="1226.5" y="753.6">etDra</text>
<circle cx="1234.3" cy="796.6" r="3" fill="#aaa"/>
<text x="1242.3" y="800.6">thDra</text>
<text class="title" x="1750.0" y="515">Eri</text>
<line x1="1573.1" y1="570.8" x2="1690.6" y2="625.4" stroke="#446" stroke-width="1.5"/>
<line x1="1690.6" y1="625.4" x2="1715.5" y2="601.1" stroke="#446" stroke-width="1.5"/>
<line x1="1715.5" y1="601.1" x2="1732.9" y2="599.1" stroke="#446" stroke-width="1.5"/>
<line x1="1732.9" y1="599.1" x2="1794.4" y2="595.4" stroke="#446" stroke-width="1.5"/>
<line x1="1794.4" y1="595.4" x2="1755.5" y2="678.9" stroke="#446" stroke-width="1.5"/>
<line x1="1755.5" y1="678.9" x2="1791.3" y2="799.3" stroke="#446" stroke-width="1.5"/>
<line x1="1791.3" y1="799.3" x2="1926.9" y2="909.2" stroke="#446" stroke-width="1.5"/>
<circle cx="1926.9" cy="909.2" r="5" fill="#ffd700"/>
<text x="1934.9" y="913.2">Achernar</text>
<circle cx="1573.1" cy="570.8" r="3" fill="#aaa"/>
<text x="1581.1" y="574.8">bEri</text>
<circle cx="1690.6" cy="625.4" r="3" fill="#aaa"/>
<text x="1698.6" y="629.4">gEri</text>
<circle cx="1715.5" cy="601.1" r="3" fill="#aaa"/>
<text x="1723.5" y="605.1">dEri</text>
<circle cx="1732.9" cy="599.1" r="3" fill="#aaa"/>
<text x="1740.9" y="603.1">eEri</text>
<circle cx="1794.4" cy="595.4" r="3" fill="#aaa"/>
<text x="1802.4" y="599.4">etEri</text>
<circle cx="1791.3" cy="799.3" r="5" fill="#ffd700"/>
<text x="1799.3" y="803.3">Acamar</text>
<circle cx="1755.5" cy="678.9" r="3" fill="#aaa"/>
<text x="1763.5" y="682.9">tEri</text>
<text class="title" x="250.0" y="1015">Gem</text>
<line x1="179.6" y1="1406.0" x2="171.7" y2="1287.3" stroke="#446" stroke-width="1.5"/>
<line x1="171.7" y1="1287.3" x2="337.6" y2="1409.2" stroke="#446" stroke-width="1.5"/>
<line x1="171.7" y1="1287.3" x2="73.1" y2="1155.2" stroke="#446" stroke-width="1.5"/>
<line x1="73.1" y1="1155.2" x2="115.0" y2="1070.8" stroke="#446" stroke-width="1.5"/>
<line x1="115.0" y1="1070.8" x2="313.3" y2="1218.5" stroke="#446" stroke-width="1.5"/>
<line x1="313.3" y1="1218.5" x2="426.9" y2="1275.7" stroke="#446" stroke-width="1.5"/>
<circle cx="115.0" cy="1070.8" r="5" fill="#ffd700"/>
<text x="123.0" y="1074.8">Castor</text>
<circle cx="73.1" cy="1155.2" r="5" fill="#ffd700"/>
<text x="81.1" y="1159.2">Pollux</text>
<circle cx="337.6" cy="1409.2" r="3" fill="#aaa"/>
<text x="345.6" y="1413.2">gGem</text>
<circle cx="171.7" cy="1287.3" r="3" fill="#aaa"/>
<text x="179.7" y="1291.3">dGem</text>
<circle cx="313.3" cy="1218.5" r="3" fill="#aaa"/>
<text x="321.3" y="1222.5">eGem</text>
<circle cx="426.9" cy="1275.7" r="3" fill="#aaa"/>
<text x="434.9" y="1279.7">etGem</text>
<circle cx="179.6" cy="1406.0" r="3" fill="#aaa"/>
<text x="187.6" y="1410.0">lGem</text>
<text class="title" x="750.0" y="1015">Gru</text>
<line x1="926.9" y1="1070.8" x2="823.1" y2="1409.2" stroke="#446" stroke-width="1.5"/>
<line x1="823.1" y1="1409.2" x2="573.1" y2="1406.9" stroke="#446" stroke-width="1.5"/>
<circle cx="823.1" cy="1409.2" r="5" fill="#ffd700"/>
<text x="831.1" y="1413.2">Al Nair</text>
<circle cx="573.1" cy="1406.9" r="3" fill="#aaa"/>
<text x="581.1" y="1410.9">bGru</text>
<circle cx="926.9" cy="1070.8" r="3" fill="#aaa"/>
<text x="934.9" y="1074.8">gGru</text>
<text class="title" x="1250.0" y="1015">Her</text>
<line x1="1201.3" y1="1298.4" x2="1202.9" y2="1409.2" stroke="#446" stroke-width="1.5"/>
<line x1="1202.9" y1="1409.2" x2="1384.2" y2="1333.9" stroke="#446" stroke-width="1.5"/>
<line x1="1384.2" y1="1333.9" x2="1418.0" y2="1358.7" stroke="#446" stroke-width="1.5"/>
<line x1="1384.2" y1="1333.9" x2="1339.0" y2="1226.7" stroke="#446" stroke-width="1.5"/>
<line x1="1339.0" y1="1226.7" x2="1261.5" y2="1233.9" stroke="#446" stroke-width="1.5"/>
<line x1="1339.0" y1="1226.7" x2="1332.4" y2="1149.1" stroke="#446" stroke-width="1.5"/>
<line x1="1332.4" y1="1149.1" x2="1426.9" y2="1070.8" stroke="#446" stroke-width="1.5"/>
<line x1="1332.4" y1="1149.1" x2="1201.2" y2="1171.5" stroke="#446" stroke-width="1.5"/>
<line x1="1201.2" y1="1171.5" x2="1101.6" y2="1074.0" stroke="#446" stroke-width="1.5"/>
<line x1="1201.2" y1="1171.5" x2="1261.5" y2="1233.9" stroke="#446" stroke-width="1.5"/>
<line x1="1261.5" y1="1233.9" x2="1201.3" y2="1298.4" stroke="#446" stroke-width="1.5"/>
<line x1="1201.3" y1="1298.4" x2="1073.1" y2="1267.8" stroke="#446" stroke-width="1.5"/>
<circle cx="1339.0" cy="1226.7" r="3" fill="#aaa"/>
<text x="1347.0" y="1230.7">zHer</text>
<circle cx="1332.4" cy="1149.1" r="3" fill="#aaa"/>
<text x="1340.4" y="1153.1">etHer</text>
<circle cx="1101.6" cy="1074.0" r="3" fill="#aaa"/>
<text x="1109.6" y="1078.0">etHer</text>
<circle cx="1073.1" cy="1267.8" r="3" fill="#aaa"/>
<text x="1081.1" y="1271.8">muHer</text>
<circle cx="1201.2" cy="1171.5" r="3" fill="#aaa"/>
<text x="1209.2" y="1175.5">piHer</text>
<circle cx="1426.9" cy="1070.8" r="3" fill="#aaa"/>
<text x="1434.9" y="1074.8">tHer</text>
<circle cx="1202.9" cy="1409.2" r="3" fill="#aaa"/>
<text x="1210.9" y="1413.2">aHer</text>
<circle cx="1384.2" cy="1333.9" r="3" fill="#aaa"/>
<text x="1392.2" y="1337.9">bHer</text>
<circle cx="1418.0" cy="1358.7" r="3" fill="#aaa"/>
<text x="1426.0" y="1362.7">gHer</text>
<circle cx="1201.3" cy="1298.4" r="3" fill="#aaa"/>
<text x="1209.3" y="1302.4">dHer</text>
<circle cx="1261.5" cy="1233.9" r="3" fill="#aaa"/>
<text x="1269.5" y="1237.9">eHer</text>
<text class="title" x="1750.0" y="1015">Hya</text>
<line x1="1926.9" y1="1070.8" x2="1905.3" y2="1108.5" stroke="#446" stroke-width="1.5"/>
<line x1="1905.3" y1="1108.5" x2="1890.3" y2="1222.2" stroke="#446" stroke-width="1.5"/>
<line x1="1890.3" y1="1222.2" x2="1796.9" y2="1300.4" stroke="#446" stroke-width="1.5"/>
<line x1="1627.1" y1="1372.9" x2="1573.1" y2="1409.2" stroke="#446" stroke-width="1.5"/>
<circle cx="1890.3" cy="1222.2" r="5" fill="#ffd700"/>
<text x="1898.3" y="1226.2">Alphard</text>
<circle cx="1627.1" cy="1372.9" r="3" fill="#aaa"/>
<text x="1635.1" y="1376.9">gHya</text>
<circle cx="1926.9" cy="1070.8" r="3" fill="#aaa"/>
<text x="1934.9" y="1074.8">zHya</text>
<circle cx="1905.3" cy="1108.5" r="3" fill="#aaa"/>
<text x="1913.3" y="1112.5">dHya</text>
<circle cx="1796.9" cy="1300.4" r="3" fill="#aaa"/>
<text x="1804.9" y="1304.4">nuHya</text>
<circle cx="1573.1" cy="1409.2" r="3" fill="#aaa"/>
<text x="1581.1" y="1413.2">piHya</text>
<text class="title" x="250.0" y="1515">Hyi</text>
<line x1="426.9" y1="1909.2" x2="73.1" y2="1844.1" stroke="#446" stroke-width="1.5"/>
<line x1="73.1" y1="1844.1" x2="263.6" y2="1570.8" stroke="#446" stroke-width="1.5"/>
<line x1="263.6" y1="1570.8" x2="426.9" y2="1909.2" stroke="#446" stroke-width="1.5"/>
<circle cx="263.6" cy="1570.8" r="3" fill="#aaa"/>
<text x="271.6" y="1574.8">aHyi</text>
<circle cx="426.9" cy="1909.2" r="3" fill="#aaa"/>
<text x="434.9" y="1913.2">bHyi</text>
<circle cx="73.1" cy="1844.1" r="3" fill="#aaa"/>
<text x="81.1" y="1848.1">gHyi</text>
<text class="title" x="750.0" y="1515">Leo</text>
<line x1="862.3" y1="1909.2" x2="865.2" y2="1793.9" stroke="#446" stroke-width="1.5"/>
<line x1="865.2" y1="1793.9" x2="828.9" y2="1719.5" stroke="#446" stroke-width="1.5"/>
<line x1="828.9" y1="1719.5" x2="838.4" y2="1633.1" stroke="#446" stroke-width="1.5"/>
<line x1="838.4" y1="1633.1" x2="907.1" y2="1570.8" stroke="#446" stroke-width="1.5"/>
<line x1="907.1" y1="1570.8" x2="926.9" y2="1624.6" stroke="#446" stroke-width="1.5"/>
<line x1="828.9" y1="1719.5" x2="673.5" y2="1703.0" stroke="#446" stroke-width="1.5"/>
<line x1="673.5" y1="1703.0" x2="573.1" y2="1846.5" stroke="#446" stroke-width="1.5"/>
<line x1="573.1" y1="1846.5" x2="673.1" y2="1826.0" stroke="#446" stroke-width="1.5"/>
<line x1="673.1" y1="1826.0" x2="673.5" y2="1703.0" stroke="#446" stroke-width="1.5"/>
<line x1="673.1" y1="1826.0" x2="865.2" y2="1793.9" stroke="#446" stroke-width="1.5"/>
<line x1="926.9" y1="1624.6" x2="865.2" y2="1793.9" stroke="#446" stroke-width="1.5"/>
<circle cx="862.3" cy="1909.2" r="5" fill="#ffd700"/>
<text x="870.3" y="1913.2">Regulus</text>
<circle cx="573.1" cy="1846.5" r="5" fill="#ffd700"/>
<text x="581.1" y="1850.5">Denebola</text>
<circle cx="828.9" cy="1719.5" r="3" fill="#aaa"/>
<text x="836.9" y="1723.5">gLeo</text>
<circle cx="673.5" cy="1703.0" r="3" fill="#aaa"/>
<text x="681.5" y="1707.0">dLeo</text>
<circle cx="926.9" cy="1624.6" r="3" fill="#aaa"/>
<text x="934.9" y="1628.6">eLeo</text>
<circle cx="838.4" cy="1633.1" r="3" fill="#aaa"/>
<text x="846.4" y="1637.1">zLeo</text>
<circle cx="865.2" cy="1793.9" r="3" fill="#aaa"/>
<text x="873.2" y="1797.9">etLeo</text>
<circle cx="673.1" cy="1826.0" r="3" fill="#aaa"/>
<text x="681.1" y="1830.0">thLeo</text>
<circle cx="907.1" cy="1570.8" r="3" fill="#aaa"/>
<text x="915.1" y="1574.8">muLeo</text>
<text class="title" x="1250.0" y="1515">Lep</text>
<line x1="1426.9" y1="1909.2" x2="1330.0" y2="1570.8" stroke="#446" stroke-width="1.5"/>
<line x1="1330.0" y1="1570.8" x2="1073.1" y2="1659.5" stroke="#446" stroke-width="1.5"/>
<line x1="1073.1" y1="1659.5" x2="1131.3" y2="1820.5" stroke="#446" stroke-width="1.5"/>
<line x1="1131.3" y1="1820.5" x2="1426.9" y2="1909.2" stroke="#446" stroke-width="1.5"/>
<circle cx="1073.1" cy="1659.5" r="5" fill="#ffd700"/>
<text x="1081.1" y="1663.5">Arneb</text>
<circle cx="1131.3" cy="1820.5" r="3" fill="#aaa"/>
<text x="1139.3" y="1824.5">bLep</text>
<circle cx="1426.9" cy="1909.2" r="3" fill="#aaa"/>
<text x="1434.9" y="1913.2">eLep</text>
<circle cx="1330.0" cy="1570.8" r="3" fill="#aaa"/>
<text x="1338.0" y="1574.8">muLep</text>
<text class="title" x="1750.0" y="1515">Lib</text>
<line x1="1926.9" y1="1680.5" x2="1732.8" y2="1570.8" stroke="#446" stroke-width="1.5"/>
<line x1="1926.9" y1="1680.5" x2="1828.2" y2="1834.6" stroke="#446" stroke-width="1.5"/>
<line x1="1732.8" y1="1570.8" x2="1596.1" y2="1660.6" stroke="#446" stroke-width="1.5"/>
<line x1="1596.1" y1="1660.6" x2="1926.9" y2="1680.5" stroke="#446" stroke-width="1.5"/>
<line x1="1596.1" y1="1660.6" x2="1573.1" y2="1909.2" stroke="#446" stroke-width="1.5"/>
<circle cx="1828.2" cy="1834.6" r="3" fill="#aaa"/>
<text x="1836.2" y="1838.6">gLib</text>
<circle cx="1596.1" cy="1660.6" r="3" fill="#aaa"/>
<text x="1604.1" y="1664.6">siLib</text>
<circle cx="1573.1" cy="1909.2" r="3" fill="#aaa"/>
<text x="1581.1" y="1913.2">tLib</text>
<circle cx="1926.9" cy="1680.5" r="3" fill="#aaa"/>
<text x="1934.9" y="1684.5">aLib</text>
<circle cx="1732.8" cy="1570.8" r="3" fill="#aaa"/>
<text x="1740.8" y="1574.8">bLib</text>
</svg>